<mxfile host="app.diagrams.net" modified="2023-05-22T21:47:22.858Z" agent="Mozilla/5.0 (Windows NT 10.0; Win64; x64) AppleWebKit/537.36 (KHTML, like Gecko) Chrome/113.0.0.0 Safari/537.36" etag="vni37pkDYshQfrRCpubk" version="21.3.2" type="device">
  <diagram id="R6Av-hOatVx4Of46MUAp" name="Page-1">
    <mxGraphModel dx="2284" dy="1896" grid="1" gridSize="10" guides="1" tooltips="1" connect="1" arrows="1" fold="1" page="1" pageScale="1" pageWidth="850" pageHeight="1100" math="0" shadow="0">
      <root>
        <mxCell id="0" />
        <mxCell id="1" parent="0" />
        <mxCell id="THkL4_W2Bnyef82Jb5Ji-1" value="&amp;lt;interface&amp;gt;&lt;br&gt;IHandler" style="swimlane;fontStyle=1;align=center;verticalAlign=top;childLayout=stackLayout;horizontal=1;startSize=50;horizontalStack=0;resizeParent=1;resizeParentMax=0;resizeLast=0;collapsible=1;marginBottom=0;whiteSpace=wrap;html=1;" parent="1" vertex="1">
          <mxGeometry x="217.5" y="10" width="190" height="110" as="geometry" />
        </mxCell>
        <mxCell id="THkL4_W2Bnyef82Jb5Ji-3" value="" style="line;strokeWidth=1;fillColor=none;align=left;verticalAlign=middle;spacingTop=-1;spacingLeft=3;spacingRight=3;rotatable=0;labelPosition=right;points=[];portConstraint=eastwest;strokeColor=inherit;" parent="THkL4_W2Bnyef82Jb5Ji-1" vertex="1">
          <mxGeometry y="50" width="190" height="8" as="geometry" />
        </mxCell>
        <mxCell id="THkL4_W2Bnyef82Jb5Ji-4" value="+ setNext(IHandler):IHandler&lt;br&gt;&lt;span style=&quot;background-color: rgb(246, 248, 248); font-family: Menlo, &amp;quot;Fira Code&amp;quot;, Monaco, Consolas, &amp;quot;Courier New&amp;quot;, monospace; font-size: 0.75rem; font-variant-ligatures: none;&quot;&gt;&lt;/span&gt;&lt;span style=&quot;background-color: initial;&quot;&gt;&amp;nbsp;+Hendler(object):object&lt;/span&gt;" style="text;strokeColor=none;fillColor=none;align=left;verticalAlign=top;spacingLeft=4;spacingRight=4;overflow=hidden;rotatable=0;points=[[0,0.5],[1,0.5]];portConstraint=eastwest;whiteSpace=wrap;html=1;" parent="THkL4_W2Bnyef82Jb5Ji-1" vertex="1">
          <mxGeometry y="58" width="190" height="52" as="geometry" />
        </mxCell>
        <mxCell id="THkL4_W2Bnyef82Jb5Ji-13" value="Order" style="swimlane;fontStyle=1;align=center;verticalAlign=top;childLayout=stackLayout;horizontal=1;startSize=26;horizontalStack=0;resizeParent=1;resizeParentMax=0;resizeLast=0;collapsible=1;marginBottom=0;whiteSpace=wrap;html=1;" parent="1" vertex="1">
          <mxGeometry x="550" y="170" width="270" height="140" as="geometry" />
        </mxCell>
        <mxCell id="THkL4_W2Bnyef82Jb5Ji-14" value="- dishes: List&amp;lt;Dictionary&amp;lt;Dish,int&amp;gt;&amp;gt;" style="text;strokeColor=none;fillColor=none;align=left;verticalAlign=top;spacingLeft=4;spacingRight=4;overflow=hidden;rotatable=0;points=[[0,0.5],[1,0.5]];portConstraint=eastwest;whiteSpace=wrap;html=1;" parent="THkL4_W2Bnyef82Jb5Ji-13" vertex="1">
          <mxGeometry y="26" width="270" height="34" as="geometry" />
        </mxCell>
        <mxCell id="THkL4_W2Bnyef82Jb5Ji-15" value="" style="line;strokeWidth=1;fillColor=none;align=left;verticalAlign=middle;spacingTop=-1;spacingLeft=3;spacingRight=3;rotatable=0;labelPosition=right;points=[];portConstraint=eastwest;strokeColor=inherit;" parent="THkL4_W2Bnyef82Jb5Ji-13" vertex="1">
          <mxGeometry y="60" width="270" height="8" as="geometry" />
        </mxCell>
        <mxCell id="THkL4_W2Bnyef82Jb5Ji-16" value="+ AddDish(Dish,int): void&lt;br&gt;+ GetDishes():List(Dish)" style="text;strokeColor=none;fillColor=none;align=left;verticalAlign=top;spacingLeft=4;spacingRight=4;overflow=hidden;rotatable=0;points=[[0,0.5],[1,0.5]];portConstraint=eastwest;whiteSpace=wrap;html=1;" parent="THkL4_W2Bnyef82Jb5Ji-13" vertex="1">
          <mxGeometry y="68" width="270" height="72" as="geometry" />
        </mxCell>
        <mxCell id="THkL4_W2Bnyef82Jb5Ji-21" value="Dish" style="swimlane;fontStyle=1;align=center;verticalAlign=top;childLayout=stackLayout;horizontal=1;startSize=26;horizontalStack=0;resizeParent=1;resizeParentMax=0;resizeLast=0;collapsible=1;marginBottom=0;whiteSpace=wrap;html=1;" parent="1" vertex="1">
          <mxGeometry x="615" y="380" width="140" height="170" as="geometry" />
        </mxCell>
        <mxCell id="THkL4_W2Bnyef82Jb5Ji-22" value="-&amp;nbsp;name: string&lt;br&gt;-category: Category&amp;nbsp;&lt;br&gt;-&amp;nbsp;timeToPrepare: TimeSpan" style="text;strokeColor=none;fillColor=none;align=left;verticalAlign=top;spacingLeft=4;spacingRight=4;overflow=hidden;rotatable=0;points=[[0,0.5],[1,0.5]];portConstraint=eastwest;whiteSpace=wrap;html=1;" parent="THkL4_W2Bnyef82Jb5Ji-21" vertex="1">
          <mxGeometry y="26" width="140" height="74" as="geometry" />
        </mxCell>
        <mxCell id="THkL4_W2Bnyef82Jb5Ji-23" value="" style="line;strokeWidth=1;fillColor=none;align=left;verticalAlign=middle;spacingTop=-1;spacingLeft=3;spacingRight=3;rotatable=0;labelPosition=right;points=[];portConstraint=eastwest;strokeColor=inherit;" parent="THkL4_W2Bnyef82Jb5Ji-21" vertex="1">
          <mxGeometry y="100" width="140" height="70" as="geometry" />
        </mxCell>
        <mxCell id="j3r8PkWyUSfE3njS3F-X-1" value="&amp;lt;enum&amp;gt;&lt;br&gt;Category&amp;nbsp;&lt;br&gt;" style="swimlane;fontStyle=1;align=center;verticalAlign=top;childLayout=stackLayout;horizontal=1;startSize=34;horizontalStack=0;resizeParent=1;resizeParentMax=0;resizeLast=0;collapsible=1;marginBottom=0;whiteSpace=wrap;html=1;" vertex="1" parent="1">
          <mxGeometry x="615" y="610" width="140" height="108" as="geometry" />
        </mxCell>
        <mxCell id="j3r8PkWyUSfE3njS3F-X-10" value="Pizza&lt;br&gt;Dessert&lt;br&gt;Drink" style="text;strokeColor=none;fillColor=none;align=left;verticalAlign=top;spacingLeft=4;spacingRight=4;overflow=hidden;rotatable=0;points=[[0,0.5],[1,0.5]];portConstraint=eastwest;whiteSpace=wrap;html=1;" vertex="1" parent="j3r8PkWyUSfE3njS3F-X-1">
          <mxGeometry y="34" width="140" height="74" as="geometry" />
        </mxCell>
        <mxCell id="j3r8PkWyUSfE3njS3F-X-15" value="&amp;lt;abstract&amp;gt;&lt;br&gt;AbstractHandler" style="swimlane;fontStyle=1;align=center;verticalAlign=top;childLayout=stackLayout;horizontal=1;startSize=38;horizontalStack=0;resizeParent=1;resizeParentMax=0;resizeLast=0;collapsible=1;marginBottom=0;whiteSpace=wrap;html=1;" vertex="1" parent="1">
          <mxGeometry x="160" y="190" width="305" height="140" as="geometry" />
        </mxCell>
        <mxCell id="j3r8PkWyUSfE3njS3F-X-16" value="- nextHandler:IHandler&amp;nbsp;" style="text;strokeColor=none;fillColor=none;align=left;verticalAlign=top;spacingLeft=4;spacingRight=4;overflow=hidden;rotatable=0;points=[[0,0.5],[1,0.5]];portConstraint=eastwest;whiteSpace=wrap;html=1;" vertex="1" parent="j3r8PkWyUSfE3njS3F-X-15">
          <mxGeometry y="38" width="305" height="32" as="geometry" />
        </mxCell>
        <mxCell id="j3r8PkWyUSfE3njS3F-X-17" value="" style="line;strokeWidth=1;fillColor=none;align=left;verticalAlign=middle;spacingTop=-1;spacingLeft=3;spacingRight=3;rotatable=0;labelPosition=right;points=[];portConstraint=eastwest;strokeColor=inherit;" vertex="1" parent="j3r8PkWyUSfE3njS3F-X-15">
          <mxGeometry y="70" width="305" height="8" as="geometry" />
        </mxCell>
        <mxCell id="j3r8PkWyUSfE3njS3F-X-18" value="# SetNext(IHandler handler):IHandler&amp;nbsp;&lt;br&gt;+&amp;nbsp;&amp;lt;&lt;span style=&quot;font-family: Menlo, &amp;quot;Fira Code&amp;quot;, Monaco, Consolas, &amp;quot;Courier New&amp;quot;, monospace; font-size: 0.75rem; font-variant-ligatures: none; box-sizing: border-box; font-weight: 700;&quot; class=&quot;cm-keyword&quot;&gt;virtual&amp;gt;&lt;/span&gt;&lt;span style=&quot;background-color: rgb(246, 248, 248); font-family: Menlo, &amp;quot;Fira Code&amp;quot;, Monaco, Consolas, &amp;quot;Courier New&amp;quot;, monospace; font-size: 0.75rem; font-variant-ligatures: none;&quot;&gt;&amp;nbsp;&lt;/span&gt;&lt;span style=&quot;font-family: Menlo, &amp;quot;Fira Code&amp;quot;, Monaco, Consolas, &amp;quot;Courier New&amp;quot;, monospace; font-size: 0.75rem; font-variant-ligatures: none; background-color: rgb(251, 251, 251);&quot;&gt;TryDo&lt;/span&gt;&lt;span style=&quot;background-color: rgb(246, 248, 248); font-family: Menlo, &amp;quot;Fira Code&amp;quot;, Monaco, Consolas, &amp;quot;Courier New&amp;quot;, monospace; font-size: 0.75rem; font-variant-ligatures: none;&quot;&gt;(&lt;/span&gt;&lt;span style=&quot;font-family: Menlo, &amp;quot;Fira Code&amp;quot;, Monaco, Consolas, &amp;quot;Courier New&amp;quot;, monospace; font-size: 0.75rem; font-variant-ligatures: none; background-color: rgb(251, 251, 251);&quot;&gt;&lt;b&gt;Dish&lt;/b&gt;&lt;/span&gt;&lt;span style=&quot;background-color: rgb(246, 248, 248); font-family: Menlo, &amp;quot;Fira Code&amp;quot;, Monaco, Consolas, &amp;quot;Courier New&amp;quot;, monospace; font-size: 0.75rem; font-variant-ligatures: none;&quot;&gt;):&lt;/span&gt;object&lt;span style=&quot;border-color: var(--border-color); font-size: 0.75rem; background-color: rgb(246, 248, 248); font-family: Menlo, &amp;quot;Fira Code&amp;quot;, Monaco, Consolas, &amp;quot;Courier New&amp;quot;, monospace; font-variant-ligatures: none;&quot;&gt;&amp;nbsp;&lt;/span&gt;" style="text;strokeColor=none;fillColor=none;align=left;verticalAlign=top;spacingLeft=4;spacingRight=4;overflow=hidden;rotatable=0;points=[[0,0.5],[1,0.5]];portConstraint=eastwest;whiteSpace=wrap;html=1;" vertex="1" parent="j3r8PkWyUSfE3njS3F-X-15">
          <mxGeometry y="78" width="305" height="62" as="geometry" />
        </mxCell>
        <mxCell id="j3r8PkWyUSfE3njS3F-X-27" value="Cook" style="swimlane;fontStyle=1;align=center;verticalAlign=top;childLayout=stackLayout;horizontal=1;startSize=26;horizontalStack=0;resizeParent=1;resizeParentMax=0;resizeLast=0;collapsible=1;marginBottom=0;whiteSpace=wrap;html=1;" vertex="1" parent="1">
          <mxGeometry x="147.5" y="390" width="330" height="210" as="geometry" />
        </mxCell>
        <mxCell id="j3r8PkWyUSfE3njS3F-X-28" value="- timer:Timer&lt;br&gt;- category:Category&lt;br&gt;- name: string&lt;br&gt;- busy: bool&lt;br&gt;+ &amp;lt;event&amp;gt; DishHandler:Action&amp;lt;Cook&amp;gt;" style="text;strokeColor=none;fillColor=none;align=left;verticalAlign=top;spacingLeft=4;spacingRight=4;overflow=hidden;rotatable=0;points=[[0,0.5],[1,0.5]];portConstraint=eastwest;whiteSpace=wrap;html=1;" vertex="1" parent="j3r8PkWyUSfE3njS3F-X-27">
          <mxGeometry y="26" width="330" height="94" as="geometry" />
        </mxCell>
        <mxCell id="j3r8PkWyUSfE3njS3F-X-29" value="" style="line;strokeWidth=1;fillColor=none;align=left;verticalAlign=middle;spacingTop=-1;spacingLeft=3;spacingRight=3;rotatable=0;labelPosition=right;points=[];portConstraint=eastwest;strokeColor=inherit;" vertex="1" parent="j3r8PkWyUSfE3njS3F-X-27">
          <mxGeometry y="120" width="330" height="8" as="geometry" />
        </mxCell>
        <mxCell id="j3r8PkWyUSfE3njS3F-X-30" value="+ &amp;lt;override&amp;gt; TryDo(Dish):object&lt;br&gt;&lt;span style=&quot;border-color: var(--border-color); font-size: 0.75rem; background-color: rgb(246, 248, 248); font-family: Menlo, &amp;quot;Fira Code&amp;quot;, Monaco, Consolas, &amp;quot;Courier New&amp;quot;, monospace; font-variant-ligatures: none;&quot;&gt;- OnTimerElapsed(object, ElapsedEventArgs):void&amp;nbsp;&lt;/span&gt;" style="text;strokeColor=none;fillColor=none;align=left;verticalAlign=top;spacingLeft=4;spacingRight=4;overflow=hidden;rotatable=0;points=[[0,0.5],[1,0.5]];portConstraint=eastwest;whiteSpace=wrap;html=1;" vertex="1" parent="j3r8PkWyUSfE3njS3F-X-27">
          <mxGeometry y="128" width="330" height="82" as="geometry" />
        </mxCell>
        <mxCell id="j3r8PkWyUSfE3njS3F-X-35" value="Manager" style="swimlane;fontStyle=1;align=center;verticalAlign=top;childLayout=stackLayout;horizontal=1;startSize=26;horizontalStack=0;resizeParent=1;resizeParentMax=0;resizeLast=0;collapsible=1;marginBottom=0;whiteSpace=wrap;html=1;" vertex="1" parent="1">
          <mxGeometry x="-290" y="260" width="360" height="150" as="geometry" />
        </mxCell>
        <mxCell id="j3r8PkWyUSfE3njS3F-X-36" value="&amp;nbsp;- cooks: List(Cook)" style="text;strokeColor=none;fillColor=none;align=left;verticalAlign=top;spacingLeft=4;spacingRight=4;overflow=hidden;rotatable=0;points=[[0,0.5],[1,0.5]];portConstraint=eastwest;whiteSpace=wrap;html=1;" vertex="1" parent="j3r8PkWyUSfE3njS3F-X-35">
          <mxGeometry y="26" width="360" height="26" as="geometry" />
        </mxCell>
        <mxCell id="j3r8PkWyUSfE3njS3F-X-37" value="" style="line;strokeWidth=1;fillColor=none;align=left;verticalAlign=middle;spacingTop=-1;spacingLeft=3;spacingRight=3;rotatable=0;labelPosition=right;points=[];portConstraint=eastwest;strokeColor=inherit;" vertex="1" parent="j3r8PkWyUSfE3njS3F-X-35">
          <mxGeometry y="52" width="360" height="8" as="geometry" />
        </mxCell>
        <mxCell id="j3r8PkWyUSfE3njS3F-X-38" value="- AddCook (Cook):void&lt;br&gt;- AssignCook(Dish): Cook&lt;br&gt;- ProcessOrder(Order):Dictionary&amp;lt;string, List&amp;lt;string&amp;gt;&amp;gt;&lt;br&gt;-InititCooks():void" style="text;strokeColor=none;fillColor=none;align=left;verticalAlign=top;spacingLeft=4;spacingRight=4;overflow=hidden;rotatable=0;points=[[0,0.5],[1,0.5]];portConstraint=eastwest;whiteSpace=wrap;html=1;" vertex="1" parent="j3r8PkWyUSfE3njS3F-X-35">
          <mxGeometry y="60" width="360" height="90" as="geometry" />
        </mxCell>
        <mxCell id="j3r8PkWyUSfE3njS3F-X-39" value="" style="endArrow=block;dashed=1;endFill=0;endSize=12;html=1;rounded=0;" edge="1" parent="1" source="j3r8PkWyUSfE3njS3F-X-15" target="THkL4_W2Bnyef82Jb5Ji-1">
          <mxGeometry width="160" relative="1" as="geometry">
            <mxPoint x="340" y="300" as="sourcePoint" />
            <mxPoint x="500" y="300" as="targetPoint" />
          </mxGeometry>
        </mxCell>
        <mxCell id="j3r8PkWyUSfE3njS3F-X-40" value="" style="endArrow=block;endSize=16;endFill=0;html=1;rounded=0;" edge="1" parent="1" source="j3r8PkWyUSfE3njS3F-X-27" target="j3r8PkWyUSfE3njS3F-X-15">
          <mxGeometry width="160" relative="1" as="geometry">
            <mxPoint x="340" y="300" as="sourcePoint" />
            <mxPoint x="500" y="300" as="targetPoint" />
          </mxGeometry>
        </mxCell>
        <mxCell id="j3r8PkWyUSfE3njS3F-X-42" value="" style="endArrow=open;html=1;endSize=12;startArrow=diamondThin;startSize=14;startFill=0;edgeStyle=orthogonalEdgeStyle;align=left;verticalAlign=bottom;rounded=0;" edge="1" parent="1" source="j3r8PkWyUSfE3njS3F-X-15" target="THkL4_W2Bnyef82Jb5Ji-1">
          <mxGeometry x="0.1624" y="40" relative="1" as="geometry">
            <mxPoint x="170" y="250" as="sourcePoint" />
            <mxPoint x="500" y="300" as="targetPoint" />
            <Array as="points">
              <mxPoint x="120" y="250" />
              <mxPoint x="120" y="65" />
            </Array>
            <mxPoint as="offset" />
          </mxGeometry>
        </mxCell>
        <mxCell id="j3r8PkWyUSfE3njS3F-X-47" value="" style="endArrow=open;html=1;endSize=12;startArrow=diamondThin;startSize=14;startFill=1;edgeStyle=orthogonalEdgeStyle;align=left;verticalAlign=bottom;rounded=0;" edge="1" parent="1" source="j3r8PkWyUSfE3njS3F-X-1" target="j3r8PkWyUSfE3njS3F-X-27">
          <mxGeometry x="-0.5922" y="85" relative="1" as="geometry">
            <mxPoint x="420" y="410" as="sourcePoint" />
            <mxPoint x="500" y="300" as="targetPoint" />
            <Array as="points">
              <mxPoint x="313" y="664" />
            </Array>
            <mxPoint x="1" as="offset" />
          </mxGeometry>
        </mxCell>
        <mxCell id="j3r8PkWyUSfE3njS3F-X-48" value="" style="endArrow=open;html=1;endSize=12;startArrow=diamondThin;startSize=14;startFill=1;edgeStyle=orthogonalEdgeStyle;align=left;verticalAlign=bottom;rounded=0;" edge="1" parent="1" source="j3r8PkWyUSfE3njS3F-X-1" target="THkL4_W2Bnyef82Jb5Ji-21">
          <mxGeometry x="-1" y="135" relative="1" as="geometry">
            <mxPoint x="340" y="300" as="sourcePoint" />
            <mxPoint x="500" y="300" as="targetPoint" />
            <mxPoint y="-10" as="offset" />
          </mxGeometry>
        </mxCell>
        <mxCell id="j3r8PkWyUSfE3njS3F-X-49" value="" style="endArrow=open;html=1;endSize=12;startArrow=diamondThin;startSize=14;startFill=1;edgeStyle=orthogonalEdgeStyle;align=left;verticalAlign=bottom;rounded=0;" edge="1" parent="1" source="THkL4_W2Bnyef82Jb5Ji-13" target="THkL4_W2Bnyef82Jb5Ji-21">
          <mxGeometry y="85" relative="1" as="geometry">
            <mxPoint x="340" y="300" as="sourcePoint" />
            <mxPoint x="500" y="300" as="targetPoint" />
            <mxPoint as="offset" />
          </mxGeometry>
        </mxCell>
        <mxCell id="j3r8PkWyUSfE3njS3F-X-50" value="" style="endArrow=open;html=1;endSize=12;startArrow=diamondThin;startSize=14;startFill=1;edgeStyle=orthogonalEdgeStyle;align=left;verticalAlign=bottom;rounded=0;" edge="1" parent="1" source="j3r8PkWyUSfE3njS3F-X-35" target="j3r8PkWyUSfE3njS3F-X-27">
          <mxGeometry x="0.7212" y="100" relative="1" as="geometry">
            <mxPoint x="340" y="300" as="sourcePoint" />
            <mxPoint x="500" y="300" as="targetPoint" />
            <Array as="points">
              <mxPoint x="-120" y="480" />
            </Array>
            <mxPoint as="offset" />
          </mxGeometry>
        </mxCell>
        <mxCell id="j3r8PkWyUSfE3njS3F-X-53" value="Simulator" style="swimlane;fontStyle=1;align=center;verticalAlign=top;childLayout=stackLayout;horizontal=1;startSize=26;horizontalStack=0;resizeParent=1;resizeParentMax=0;resizeLast=0;collapsible=1;marginBottom=0;whiteSpace=wrap;html=1;" vertex="1" parent="1">
          <mxGeometry x="60" y="-300" width="470" height="190" as="geometry" />
        </mxCell>
        <mxCell id="j3r8PkWyUSfE3njS3F-X-54" value="- manager:Manager&lt;br&gt;- orders: List&amp;lt;Order&amp;gt;&lt;br&gt;+ &amp;lt;even&amp;gt; NotifyEvent: Action&amp;lt;?&amp;gt;&lt;br&gt;- &amp;lt;static&amp;gt; simulator: Simulator" style="text;strokeColor=none;fillColor=none;align=left;verticalAlign=top;spacingLeft=4;spacingRight=4;overflow=hidden;rotatable=0;points=[[0,0.5],[1,0.5]];portConstraint=eastwest;whiteSpace=wrap;html=1;" vertex="1" parent="j3r8PkWyUSfE3njS3F-X-53">
          <mxGeometry y="26" width="470" height="64" as="geometry" />
        </mxCell>
        <mxCell id="j3r8PkWyUSfE3njS3F-X-55" value="" style="line;strokeWidth=1;fillColor=none;align=left;verticalAlign=middle;spacingTop=-1;spacingLeft=3;spacingRight=3;rotatable=0;labelPosition=right;points=[];portConstraint=eastwest;strokeColor=inherit;" vertex="1" parent="j3r8PkWyUSfE3njS3F-X-53">
          <mxGeometry y="90" width="470" height="8" as="geometry" />
        </mxCell>
        <mxCell id="j3r8PkWyUSfE3njS3F-X-56" value="- Simulator()&lt;br&gt;+ &amp;lt;static&amp;gt; GetSimulator():Simulator&lt;br&gt;- InitManager():void&lt;br&gt;-InitOrders():void" style="text;strokeColor=none;fillColor=none;align=left;verticalAlign=top;spacingLeft=4;spacingRight=4;overflow=hidden;rotatable=0;points=[[0,0.5],[1,0.5]];portConstraint=eastwest;whiteSpace=wrap;html=1;" vertex="1" parent="j3r8PkWyUSfE3njS3F-X-53">
          <mxGeometry y="98" width="470" height="92" as="geometry" />
        </mxCell>
        <mxCell id="j3r8PkWyUSfE3njS3F-X-57" value="" style="endArrow=open;html=1;endSize=12;startArrow=diamondThin;startSize=14;startFill=1;edgeStyle=orthogonalEdgeStyle;align=left;verticalAlign=bottom;rounded=0;" edge="1" parent="1" source="j3r8PkWyUSfE3njS3F-X-35" target="j3r8PkWyUSfE3njS3F-X-53">
          <mxGeometry x="0.7212" y="100" relative="1" as="geometry">
            <mxPoint x="-110" y="420" as="sourcePoint" />
            <mxPoint x="158" y="490" as="targetPoint" />
            <Array as="points">
              <mxPoint x="-110" y="-205" />
            </Array>
            <mxPoint as="offset" />
          </mxGeometry>
        </mxCell>
        <mxCell id="j3r8PkWyUSfE3njS3F-X-58" value="" style="endArrow=open;html=1;endSize=12;startArrow=diamondThin;startSize=14;startFill=1;edgeStyle=orthogonalEdgeStyle;align=left;verticalAlign=bottom;rounded=0;" edge="1" parent="1" source="THkL4_W2Bnyef82Jb5Ji-13" target="j3r8PkWyUSfE3njS3F-X-53">
          <mxGeometry x="0.7212" y="100" relative="1" as="geometry">
            <mxPoint x="-100" y="270" as="sourcePoint" />
            <mxPoint x="70" y="-195" as="targetPoint" />
            <Array as="points">
              <mxPoint x="670" y="-195" />
            </Array>
            <mxPoint as="offset" />
          </mxGeometry>
        </mxCell>
      </root>
    </mxGraphModel>
  </diagram>
</mxfile>
